<svg id="Layer_1" data-name="Layer 1" fill="#a67b5b" xmlns="http://www.w3.org/2000/svg" viewBox="0 0 400 400"><title>bubbles</title><path d="M107.29,252.33a38.81,38.81,0,0,1,.45-4.58,33.75,33.75,0,0,1,3.64-10.6,35.16,35.16,0,0,1,6.77-8.8,34.62,34.62,0,0,1,9.18-6.25,33.29,33.29,0,0,1,7.48-2.46,34.69,34.69,0,0,1,32.37,57.76,34.23,34.23,0,0,1-21.44,10.7,34.72,34.72,0,0,1-37.36-25.66A35.14,35.14,0,0,1,107.29,252.33Zm30.65-28a6.88,6.88,0,0,0-.86.12,34,34,0,0,0-19.36,12.19,3,3,0,0,0,0,3.64,2,2,0,0,0,3.38.14,35.22,35.22,0,0,1,6.66-6.19,29.44,29.44,0,0,1,11.19-4.69c1.56-.34,2.26-1.3,2.09-2.61A2.72,2.72,0,0,0,137.94,224.36ZM151.56,228a2.9,2.9,0,0,0-1.53-2.61,13.15,13.15,0,0,0-4.6-1.49,1.86,1.86,0,0,0-2.25,1.63,3.35,3.35,0,0,0,2.3,3.48c1.17.33,2.33.68,3.49,1C150.47,230.5,151.56,229.71,151.56,228Z"/><path d="M163.83,18.13a12.28,12.28,0,1,1-10.11,4.35,12.38,12.38,0,0,1,10.11-4.35Zm-2.15,2c-.2,0-.4,0-.6.09a12.08,12.08,0,0,0-5.75,3.37,6.64,6.64,0,0,0-.73.86,1,1,0,0,0,.15,1.41c.5.44.83,0,1.14-.32a10.58,10.58,0,0,1,6.05-3.63c.52-.11.87-.39.77-.95A.87.87,0,0,0,161.68,20.11Zm2.68-.15c-.4,0-.72.09-.78.51a1,1,0,0,0,.61,1.13,10.3,10.3,0,0,0,1.15.37c.4.12.82.24,1-.26a.92.92,0,0,0-.34-1.15A3.44,3.44,0,0,0,164.36,20Z"/><path d="M237,245.85c26.65,1.29,47.1,12.9,60,36.65a64.92,64.92,0,0,1,7.7,34.56,63,63,0,0,1-4,20c-9.06,23.51-25.94,38.31-50.53,43.38-22.47,4.64-42.43-1.5-59.57-16.75-1.58-1.41-3-2.95-4.47-4.5-.4-.43-.39-.63.1-1a34.26,34.26,0,0,0,14.68-22.72c2.1-11.67-1-22-9-30.7a34.21,34.21,0,0,0-19.32-10.54c-.79-.16-.56-.52-.42-1a66.47,66.47,0,0,1,10.73-20.59c10.8-13.94,24.95-22.42,42.24-25.71,1.28-.24,2.57-.4,3.86-.56C231.58,246.1,234.24,246,237,245.85Zm59.54,69a55.83,55.83,0,0,0-.48-8,71.22,71.22,0,0,0-8-24.78,7.44,7.44,0,0,0-8.41-3.86c-3.8.87-5.67,4.44-3.73,7.82a55.61,55.61,0,0,1,4,9,57.33,57.33,0,0,1,3.5,22,78.72,78.72,0,0,1-1.25,9.55c-.52,3.06.33,5.24,2.53,6.59a6.8,6.8,0,0,0,10.24-3.48,12,12,0,0,0,.52-1.74A82.52,82.52,0,0,0,296.51,314.85ZM284.2,335.78a6.58,6.58,0,0,0-5.51,2.42q-2.58,3.29-5.28,6.45a4.62,4.62,0,0,0,.18,6.25,7.5,7.5,0,0,0,10.42.15,45.14,45.14,0,0,0,4.29-4.67,11.07,11.07,0,0,0,2.29-4.34,4.54,4.54,0,0,0-2.07-5.17A8.42,8.42,0,0,0,284.2,335.78Z"/><path d="M133.06,329a33,33,0,1,1,33,33.1A33,33,0,0,1,133.06,329Zm7.3,10.41a3.52,3.52,0,0,0,3.85-4.12c0-.35-.07-.69-.13-1a26,26,0,0,1-.15-8.72,32.27,32.27,0,0,1,3.56-10.26,3.08,3.08,0,0,0-1.76-4.56,4.27,4.27,0,0,0-5.33,2A33.88,33.88,0,0,0,136,331a18.63,18.63,0,0,0,.79,6A3.5,3.5,0,0,0,140.36,339.4Zm7.71,11.42a4.82,4.82,0,0,0,1.65-.31,3.06,3.06,0,0,0,1.53-4.79q-1.32-1.73-2.71-3.38a4.52,4.52,0,0,0-5.78-.53c-1.44,1.08-1.56,2.85-.3,4.8a19.66,19.66,0,0,0,2.59,3A4.12,4.12,0,0,0,148.07,350.82Z"/><path d="M184.12,224a34.24,34.24,0,0,1,67.93-6.34,33.61,33.61,0,0,1-5.53,25.7,1.34,1.34,0,0,1-1.47.67A70,70,0,0,0,201.69,253a1.2,1.2,0,0,1-1.47,0,34.18,34.18,0,0,1-15.49-22.53c-.16-.79-.27-1.6-.37-2.4A30.31,30.31,0,0,1,184.12,224Zm62.6-6.69a7.88,7.88,0,0,0-.49-2,33.78,33.78,0,0,0-13.91-17.11,3,3,0,0,0-4,1c-.66,1.14-.44,2,1.22,3.08a30.53,30.53,0,0,1,8.78,8.76,34.76,34.76,0,0,1,3.43,7.46,2.12,2.12,0,0,0,2.66,1.51A2.65,2.65,0,0,0,246.72,217.33Zm1.18,7.32c0-1.58-.46-2.36-1.37-2.56a3.26,3.26,0,0,0-3.54,2.15c-.33,1.44-.56,2.89-.78,4.35a1.59,1.59,0,0,0,1.19,1.85,3,3,0,0,0,3.52-1.66A14.78,14.78,0,0,0,247.9,224.65Z"/><path d="M200.11,81a28.85,28.85,0,1,1,28.35,28.87A28.8,28.8,0,0,1,200.11,81Zm25.53-24.3a4.56,4.56,0,0,0-.73.11,28.21,28.21,0,0,0-16.06,10.1,2.52,2.52,0,0,0,.06,3.2,1.59,1.59,0,0,0,2.6.06c.58-.65,1.13-1.32,1.74-1.94A24.7,24.7,0,0,1,226.43,61a1.85,1.85,0,0,0,1.7-2.29A2.22,2.22,0,0,0,225.64,56.65Zm6.41-.36c-1.63,0-2.28.75-2,2.11a2.54,2.54,0,0,0,2,2.15c.93.23,1.84.53,2.75.8A1.51,1.51,0,0,0,237,59.88a2.38,2.38,0,0,0-1.08-2.24A10.89,10.89,0,0,0,232.05,56.29Z"/><path d="M125.38,178.75a22.71,22.71,0,1,1,22.56,22.82A22.69,22.69,0,0,1,125.38,178.75Zm20.08-19.07a5.74,5.74,0,0,0-.7.1,22.39,22.39,0,0,0-10.21,5.44,18.67,18.67,0,0,0-2.39,2.63,2,2,0,0,0,.43,2.64c.72.54,1.19.4,2-.56a23.28,23.28,0,0,1,3.73-3.49A18.81,18.81,0,0,1,146,163.1c1.09-.22,1.56-.85,1.47-1.72A1.78,1.78,0,0,0,145.46,159.68Zm5-.31c-1.14-.06-1.74.63-1.51,1.65a2,2,0,0,0,1.54,1.69c.76.19,1.5.44,2.24.66a1.18,1.18,0,0,0,1.65-1.18,2,2,0,0,0-.91-1.78A9.89,9.89,0,0,0,150.45,159.37Z"/><path d="M244.26,133.41A22.73,22.73,0,1,1,221.5,156,22.67,22.67,0,0,1,244.26,133.41ZM228,146.25a1.87,1.87,0,0,0,1.08,1.74c.77.34,1.23-.18,1.68-.71a19.68,19.68,0,0,1,8.59-6.1c1-.34,2-.53,3-.82a1.58,1.58,0,0,0,1.07-2.37,1.72,1.72,0,0,0-2.17-.94A22.06,22.06,0,0,0,228.44,145,1.81,1.81,0,0,0,228,146.25Zm18.67-9.54c-1,0-1.54.35-1.61,1.11a2.25,2.25,0,0,0,1.43,2.16c.82.26,1.65.51,2.49.73a1.18,1.18,0,0,0,1.57-1.21,1.92,1.92,0,0,0-.91-1.77A8.28,8.28,0,0,0,246.64,136.71Z"/><path d="M136.8,122a17.07,17.07,0,1,1,18.82,16.37A17.1,17.1,0,0,1,136.8,122Zm16.59-13.58c0-1.09-.9-1.62-2.21-1.28a16.71,16.71,0,0,0-7.2,3.8,15.11,15.11,0,0,0-2,2.15,1.49,1.49,0,0,0,.29,2c.69.49,1.09,0,1.51-.45a17.28,17.28,0,0,1,3.2-2.9,14.4,14.4,0,0,1,5.32-2.21A1.19,1.19,0,0,0,153.39,108.4Zm2.34-1.59c-1.07,0-1.44.49-1.15,1.39a1.51,1.51,0,0,0,1.13,1.08c.43.1.84.22,1.25.35.57.19,1.13.4,1.49-.32a1.42,1.42,0,0,0-.56-1.75A5.7,5.7,0,0,0,155.73,106.81Z"/><path d="M191.6,171.56a15.46,15.46,0,1,1,15.5-15.4A15.35,15.35,0,0,1,191.6,171.56Zm-13-15.16a11.48,11.48,0,0,0,.32,3.09,1.32,1.32,0,0,0,1.5,1c.77-.19.74-.73.63-1.36a13.44,13.44,0,0,1-.19-1.9,12.7,12.7,0,0,1,1.63-6.9,1,1,0,0,0,0-1.36,1.23,1.23,0,0,0-1.26-.37c-.52.13-.76.59-1,1A14.82,14.82,0,0,0,178.62,156.4Zm5-8.33a6.49,6.49,0,0,0,2.33-1.54c.28-.31.05-.73-.26-1a1.35,1.35,0,0,0-1.54-.19,8.86,8.86,0,0,0-1.32.79c-.38.27-.76.61-.57,1.14S183,148,183.65,148.07Z"/><path d="M179.87,79.94a12.25,12.25,0,1,1-12.28-12.23A12.21,12.21,0,0,1,179.87,79.94Zm-20.94-5.26a.93.93,0,0,0,.52.85c.44.19.69-.1,1-.39a10.41,10.41,0,0,1,5.87-3.6c.58-.12,1.18-.33,1-1.13s-.81-.82-1.46-.66a12.1,12.1,0,0,0-6.44,4A1.3,1.3,0,0,0,158.93,74.68Zm12-3.75a1,1,0,0,0-.41-.82,4.33,4.33,0,0,0-1.36-.53c-.37-.11-.78-.15-1,.26a.92.92,0,0,0,.27,1.17,4.19,4.19,0,0,0,1.94.65C170.81,71.71,171,71.34,171,70.93Z"/><path d="M285.83,229.68a11.77,11.77,0,0,1,0,23.53,11.77,11.77,0,1,1,0-23.53Zm-8.39,6.59a.88.88,0,0,0,.49.89c.4.19.64-.07.88-.34a10.08,10.08,0,0,1,5.73-3.5c.54-.11,1-.35.86-1s-.64-.82-1.27-.68a11.46,11.46,0,0,0-6.37,3.93A1.08,1.08,0,0,0,277.44,236.27Zm9.52-4.85c-.36,0-.66.1-.7.48a1,1,0,0,0,.56,1.08,8.58,8.58,0,0,0,1.15.37c.37.12.77.22,1-.24a.9.9,0,0,0-.35-1.15A3.43,3.43,0,0,0,287,231.42Z"/><path d="M140.28,337a1.22,1.22,0,0,1-1.25-.87,8.8,8.8,0,0,1-.49-2.54,32.23,32.23,0,0,1,4-19.64,1.88,1.88,0,0,1,2.24-1c.79.24,1,.6.56,1.34a34.54,34.54,0,0,0-3.57,10,28.51,28.51,0,0,0-.06,10.09c.05.34.11.68.15,1C141.94,336.49,141.48,337,140.28,337Z"/><path d="M145.37,343.42a1.85,1.85,0,0,1,1.53.71c.72,1,1.5,1.91,2.26,2.86.46.59.36,1-.32,1.27a1.79,1.79,0,0,1-2-.3,14.91,14.91,0,0,1-2.42-2.83c-.23-.36-.54-.77-.31-1.2S144.92,343.5,145.37,343.42Z"/></svg>