<?xml version="1.0" encoding="utf-8"?>
<!-- Designed by Vexels.com - 2021 All Rights Reserved - https://vexels.com/terms-and-conditions/  -->
<svg version="1.1" id="Layer_1" fill="#a67b5b" xmlns="http://www.w3.org/2000/svg" xmlns:xlink="http://www.w3.org/1999/xlink" x="0px" y="0px"
	 viewBox="0 0 800 1200" enable-background="new 0 0 800 1200" xml:space="preserve">
  <g transform="translate(600, 0)">
    <g transform="translate(-500, 0)">
	<path d="M344.974,122.303c-0.155-3.301-2.878-5.896-6.181-5.896c-3.332,0-6.065,2.638-6.184,5.968l-7.031,196.861
		c-0.109,3.021-2.589,5.416-5.613,5.416h-2.273c-3.103,0-5.616-2.515-5.616-5.617v-196.44c0-3.418-2.771-6.188-6.188-6.188h-2.996
		c-3.36,0-6.104,2.678-6.187,6.036l-4.842,196.43c-0.069,2.742-1.96,5.253-4.666,5.7c-3.466,0.572-6.488-2.04-6.571-5.4
		l-4.849-196.73c-0.082-3.358-2.828-6.036-6.187-6.036h-2.996c-3.418,0-6.188,2.771-6.188,6.188v196.44
		c0,3.102-2.515,5.617-5.616,5.617h-2.273c-3.024,0-5.506-2.395-5.613-5.416l-7.031-196.861c-0.118-3.33-2.851-5.968-6.184-5.968
		c-3.304,0-6.026,2.596-6.181,5.896l-12.577,265.94c-1.133,23.95,6.418,47.504,21.266,66.331l27.295,34.61
		c6.667,10.805,9.976,23.326,9.507,36.014c-3.583,96.989-19.473,492.746-22.247,545.47c-3.132,59.498,10.438,79.331,35.489,79.331
		c25.052,0,38.622-19.833,35.49-79.331c-2.774-52.724-18.664-448.481-22.247-545.47c-0.468-12.688,2.841-25.209,9.507-36.014
		l27.295-34.61c14.848-18.827,22.399-42.381,21.266-66.331L344.974,122.303z"/>
		</g>
	</g>
</svg>