<?xml version="1.0" encoding="utf-8"?>
<!-- Designed by Vexels.com - 2021 All Rights Reserved - https://vexels.com/terms-and-conditions/  -->
<svg version="1.1" id="Layer_1" fill="#a67b5b" xmlns="http://www.w3.org/2000/svg" xmlns:xlink="http://www.w3.org/1999/xlink" x="0px" y="0px"
	 viewBox="0 0 800 1200" enable-background="new 0 0 800 1200" xml:space="preserve">
<g transform="translate(-166, 0)">
	<path d="M601.284,689.931c0-28.967,5.48-131.523,7.829-186.325s8.612-349.484,8.612-383.93c0-34.447-5.481-69.676-24.269-69.676
		c-55.354,0-68.379,245.657-71.301,367.089c-1.227,50.926,2.795,101.821,11.965,151.93l11.571,63.207
		c5.213,28.489,7.294,57.458,6.198,86.399c-4.079,107.813-14.486,379.644-16.365,397.189c-2.349,21.921,22.704,34.186,44.623,34.186
		c30.533,0,42.275-21.66,41.492-36.533c-0.783-14.875-13.309-169.102-18.005-259.132
		C598.935,764.304,601.284,718.898,601.284,689.931z"/>
</g>
</svg>
